<?xml version="1.0" encoding="UTF-8" standalone="no"?>
<svg
   xmlns:dc="http://purl.org/dc/elements/1.1/"
   xmlns:cc="http://creativecommons.org/ns#"
   xmlns:rdf="http://www.w3.org/1999/02/22-rdf-syntax-ns#"
   xmlns:svg="http://www.w3.org/2000/svg"
   xmlns="http://www.w3.org/2000/svg"
   xmlns:sodipodi="http://sodipodi.sourceforge.net/DTD/sodipodi-0.dtd"
   xmlns:inkscape="http://www.inkscape.org/namespaces/inkscape"
   width="263.10223"
   height="359.34573"
   id="svg2"
   version="1.1"
   inkscape:version="0.48.4 r9939"
   sodipodi:docname="black-person-symbol.svg"
   inkscape:export-filename="/home/balaji/Programs/modules/BCore/Util/BehaviorServerGUI/resources/Subject.png"
   inkscape:export-xdpi="90"
   inkscape:export-ydpi="90">
  <metadata
     id="metadata18">
    <rdf:RDF>
      <cc:Work
         rdf:about="">
        <dc:format>image/svg+xml</dc:format>
        <dc:type
           rdf:resource="http://purl.org/dc/dcmitype/StillImage" />
        <dc:title>red person symbol</dc:title>
      </cc:Work>
    </rdf:RDF>
  </metadata>
  <defs
     id="defs16" />
  <sodipodi:namedview
     pagecolor="#ffffff"
     bordercolor="#666666"
     borderopacity="1"
     objecttolerance="10"
     gridtolerance="10"
     guidetolerance="10"
     inkscape:pageopacity="0"
     inkscape:pageshadow="2"
     inkscape:window-width="1871"
     inkscape:window-height="1056"
     id="namedview14"
     showgrid="false"
     fit-margin-top="1"
     fit-margin-left="1"
     fit-margin-right="1"
     fit-margin-bottom="1"
     inkscape:zoom="1.5395379"
     inkscape:cx="-138.78218"
     inkscape:cy="36.524792"
     inkscape:window-x="49"
     inkscape:window-y="24"
     inkscape:window-maximized="1"
     inkscape:current-layer="svg2"
     units="cm" />
  <title
     id="title4">red person symbol</title>
  <g
     id="g6"
     transform="translate(-166.99894,-11.65683)">
    <title
       id="title8">Layer 1</title>
    <path
       d="M 302.80301,90.423897"
       id="path2457"
       inkscape:connector-curvature="0"
       style="fill:#56aaff;stroke:#ffffff" />
    <g
       id="svg_1">
      <path
         d="m 296.80301,129.26001 c 22.55099,0 40.83499,-18.28401 40.83499,-40.836113 0,-22.551003 -18.284,-40.833996 -40.83499,-40.833996 -22.552,0 -40.83402,18.282993 -40.83402,40.833996 0,22.552103 18.28202,40.836113 40.83402,40.836113 z"
         id="path2455"
         inkscape:connector-curvature="0"
         style="fill:#000000;stroke:#000000" />
      <path
         d="m 255.105,138.273 c -28.918,0 -52.17299,23.58399 -52.17299,53 l 0,125.37501 c 0,24.375 35.67299,24.375 35.67299,0 l 0,-114.64201 8.444,0 0,131.90702 103.44999,0 0,-131.90702 8.24701,0 0,114.64201 c 0,24.56198 35.487,24.56198 35.422,0 l 0,-124.62502 c 0,-27.125 -21.064,-53.694 -52.814,-53.694 z"
         id="path2459"
         inkscape:connector-curvature="0"
         style="fill:#808080;stroke:#000000"
         sodipodi:nodetypes="csssccccccscscc" />
    </g>
  </g>
  <path
     style="fill:#808080"
     d="m 123.76243,117.07027 c -0.21068,-0.341 -0.81586,-0.454 -1.34484,-0.251 -0.52898,0.203 -1.35033,0.05 -1.82521,-0.348 -0.47489,-0.394 -1.03631,-0.543 -1.24761,-0.332 -0.2113,0.211 -0.76899,0.144 -1.23932,-0.149 -0.47033,-0.294 -1.43974,-0.624 -2.15424,-0.734 -0.7145,-0.11 -1.39713,-0.485 -1.51696,-0.834 -0.11982,-0.349 -0.48519,-0.47 -0.81193,-0.268 -0.32674,0.202 -0.59407,0.04 -0.59407,-0.359 0,-0.399 -0.29229,-0.546 -0.64954,-0.325 -0.35725,0.221 -0.64955,0.08 -0.64955,-0.325 0,-0.399 -0.29229,-0.545 -0.64954,-0.324 -0.35725,0.22 -0.64955,0.07 -0.64955,-0.325 0,-0.4 -0.29229,-0.546 -0.64954,-0.325 -0.35726,0.221 -0.64955,0.09 -0.64955,-0.286 0,-0.379 -0.43844,-0.688 -0.97432,-0.688 -0.53587,0 -0.97432,-0.293 -0.97432,-0.65 0,-0.357 -0.42816,-0.649 -0.95146,-0.649 -0.52331,0 -1.26871,-0.593 -1.65646,-1.318 -0.38774,-0.724 -0.9363,-1.174 -1.21902,-0.999 -0.65753,0.406 -4.773939,-3.805 -4.240549,-4.339 0.2197,-0.22 -0.2136,-0.782 -0.96289,-1.25 -0.74929,-0.468 -1.36235,-1.188 -1.36235,-1.599 0,-0.412 -0.45697,-0.924 -1.01548,-1.139 -0.55852,-0.214 -0.83357,-0.684 -0.61122,-1.044 0.22236,-0.359 0.0775,-0.654 -0.32193,-0.654 -0.39942,0 -0.54557,-0.292 -0.32478,-0.649 0.2208,-0.357 0.1116,-0.65 -0.24266,-0.65 -0.64596,0 -1.75127,-2.496 -1.50989,-3.41 0.0708,-0.268 -0.18086,-0.487 -0.55919,-0.487 -0.37833,0 -0.51971,-0.272 -0.31418,-0.605 0.20554,-0.332 0.0719,-0.791 -0.29703,-1.019 -0.36891,-0.228 -0.50257,-0.687 -0.29703,-1.019 0.20553,-0.333 0.0329,-0.605 -0.38368,-0.605 -0.41655,0 -0.60009,-0.41 -0.40786,-0.911 0.19223,-0.501 0.15043,-1.109 -0.0929,-1.353 -0.61308,-0.612 -0.79365,-2.905 -0.79365,-10.077 0,-7.172 0.18057,-9.465 0.79365,-10.078 0.24332,-0.243 0.28512,-0.852 0.0929,-1.353 -0.19223,-0.501 -0.009,-0.911 0.40786,-0.911 0.41656,0 0.58921,-0.272 0.38368,-0.604 -0.20554,-0.333 -0.0719,-0.791 0.29703,-1.019 0.3689,-0.228 0.50257,-0.687 0.29703,-1.02 -0.20553,-0.332 -0.0642,-0.604 0.31418,-0.604 0.37833,0 0.62997,-0.219 0.55919,-0.487 -0.24138,-0.914 0.86393,-3.411 1.50989,-3.411 0.35426,0 0.46346,-0.292 0.24266,-0.649 -0.22079,-0.357 -0.0746,-0.65 0.32478,-0.65 0.39941,0 0.54429,-0.294 0.32193,-0.654 -0.22235,-0.36 0.051,-0.829 0.60748,-1.042 0.55647,-0.214 0.85911,-0.635 0.67253,-0.937 -0.18658,-0.302 0.25354,-0.866 0.97805,-1.254 0.7245,-0.388 1.31728,-1.076 1.31728,-1.529 0,-0.997 3.995109,-4.976 4.995409,-4.976 0.39133,0 0.87976,-0.439 1.08539,-0.975 0.20564,-0.536 0.8215,-0.974 1.36859,-0.974 0.54709,0 0.9947,-0.292 0.9947,-0.65 0,-0.357 0.43845,-0.649 0.97432,-0.649 0.53588,0 0.97432,-0.31 0.97432,-0.688 0,-0.378 0.29229,-0.507 0.64955,-0.286 0.35725,0.22 0.64954,0.07 0.64954,-0.325 0,-0.4 0.2923,-0.546 0.64955,-0.325 0.35725,0.221 0.64954,0.08 0.64954,-0.325 0,-0.399 0.2923,-0.545 0.64955,-0.324 0.35725,0.22 0.64954,0.07 0.64954,-0.325 0,-0.4 0.26733,-0.561 0.59407,-0.359 0.32674,0.202 0.69211,0.08 0.81193,-0.268 0.11983,-0.349 0.80246,-0.725 1.51696,-0.835 0.7145,-0.11 1.66446,-0.428 2.11102,-0.706 0.44656,-0.279 1.08403,-0.339 1.4166,-0.133 0.33256,0.205 0.80057,0.06 1.04002,-0.331 0.23944,-0.388 0.88128,-0.533 1.4263,-0.324 0.54502,0.209 1.346,0.09 1.77995,-0.275 0.46049,-0.382 3.19835,-0.537 6.57552,-0.371 7.19255,0.352 7.51328,0.382 8.70946,0.819 0.53587,0.196 1.67855,0.449 2.53928,0.562 0.86073,0.113 1.80621,0.586 2.10107,1.051 0.29487,0.465 0.54059,0.59 0.54606,0.278 0.005,-0.311 0.40221,-0.241 0.88165,0.157 0.47943,0.398 1.06402,0.531 1.29909,0.296 0.23506,-0.235 0.42739,-0.07 0.42739,0.369 0,0.438 0.2923,0.615 0.64955,0.395 0.35725,-0.221 0.64954,-0.08 0.64954,0.324 0,0.4 0.2923,0.546 0.64955,0.325 0.35725,-0.221 0.64955,-0.09 0.64955,0.287 0,0.378 0.43844,0.687 0.97431,0.687 0.53588,0 0.97432,0.31 0.97432,0.688 0,0.379 0.29436,0.506 0.65414,0.284 0.35977,-0.222 0.82948,0.05 1.04381,0.611 0.21432,0.559 0.62731,1.016 0.91777,1.016 0.68896,0 8.42656,7.737 8.42656,8.426 0,0.291 0.48028,0.713 1.06728,0.938 0.58701,0.225 0.89691,0.58 0.68867,0.788 -0.20826,0.208 0.17825,0.976 0.85888,1.707 0.68064,0.73 1.08422,1.576 0.89687,1.879 -0.18736,0.304 -0.0311,0.552 0.34723,0.552 0.37834,0 0.62579,0.219 0.54989,0.487 -0.0759,0.268 0.22668,1.145 0.6724,1.948 0.44571,0.804 0.61817,1.462 0.38323,1.462 -0.23494,0 -0.0633,0.438 0.38146,0.974 0.44473,0.536 0.59088,0.974 0.32477,0.974 -0.26611,0 -0.13059,0.426 0.30116,0.946 0.43175,0.521 0.60892,1.231 0.39371,1.579 -0.21521,0.349 -0.0987,0.814 0.25891,1.035 0.73844,0.457 0.79956,1.128 0.79956,8.782 0,7.654 -0.0611,8.325 -0.79956,8.781 -0.35761,0.221 -0.48204,0.674 -0.27649,1.007 0.20553,0.332 0.1417,0.97 -0.14185,1.417 -0.28355,0.446 -0.55656,1.031 -0.60669,1.299 -0.0501,0.268 -0.16421,0.633 -0.25352,0.812 -0.0893,0.178 -0.22276,0.544 -0.29654,0.811 -0.91646,3.328 -1.23381,4.06 -1.76085,4.06 -0.33961,0 -0.46418,0.248 -0.27682,0.551 0.18735,0.303 -0.21623,1.149 -0.89687,1.88 -0.68063,0.73 -1.06714,1.498 -0.85888,1.707 0.20824,0.208 -0.10166,0.563 -0.68867,0.788 -0.587,0.225 -1.06728,0.647 -1.06728,0.938 0,0.689 -7.7376,8.426 -8.42656,8.426 -0.29046,0 -0.70345,0.457 -0.91777,1.016 -0.21433,0.558 -0.68404,0.833 -1.04381,0.611 -0.35978,-0.223 -0.65414,-0.1 -0.65414,0.283 0,0.379 -0.43844,0.688 -0.97432,0.688 -0.53587,0 -0.97431,0.31 -0.97431,0.688 0,0.379 -0.2923,0.507 -0.64955,0.287 -0.35725,-0.221 -0.64955,-0.08 -0.64955,0.324 0,0.4 -0.29229,0.546 -0.64954,0.325 -0.35725,-0.221 -0.64955,-0.04 -0.64955,0.395 0,0.438 -0.19233,0.604 -0.42739,0.369 -0.23507,-0.235 -0.81966,-0.102 -1.29909,0.296 -0.47944,0.398 -0.87618,0.468 -0.88165,0.156 -0.005,-0.311 -0.25119,-0.186 -0.54606,0.279 -0.29486,0.465 -1.24034,0.938 -2.10107,1.051 -0.86073,0.113 -2.00341,0.366 -2.53928,0.562 -1.20213,0.439 -1.51314,0.468 -8.89378,0.824 -3.42507,0.165 -6.13414,0.02 -6.35387,-0.332 l 0,0 z"
     id="path2995"
     inkscape:connector-curvature="0" />
  <path
     inkscape:connector-curvature="0"
     id="path2997"
     d="m 123.76243,117.07027 c -0.21068,-0.341 -0.81586,-0.454 -1.34484,-0.251 -0.52898,0.203 -1.35033,0.05 -1.82521,-0.348 -0.47489,-0.394 -1.03631,-0.543 -1.24761,-0.332 -0.2113,0.211 -0.76899,0.144 -1.23932,-0.149 -0.47033,-0.294 -1.43974,-0.624 -2.15424,-0.734 -0.7145,-0.11 -1.39713,-0.485 -1.51696,-0.834 -0.11982,-0.349 -0.48519,-0.47 -0.81193,-0.268 -0.32674,0.202 -0.59407,0.04 -0.59407,-0.359 0,-0.399 -0.29229,-0.546 -0.64954,-0.325 -0.35725,0.221 -0.64955,0.08 -0.64955,-0.325 0,-0.399 -0.29229,-0.545 -0.64954,-0.324 -0.35725,0.22 -0.64955,0.07 -0.64955,-0.325 0,-0.4 -0.29229,-0.546 -0.64954,-0.325 -0.35726,0.221 -0.64955,0.09 -0.64955,-0.286 0,-0.379 -0.43844,-0.688 -0.97432,-0.688 -0.53587,0 -0.97432,-0.293 -0.97432,-0.65 0,-0.357 -0.42816,-0.649 -0.95146,-0.649 -0.52331,0 -1.26871,-0.593 -1.65646,-1.318 -0.38774,-0.724 -0.9363,-1.174 -1.21902,-0.999 -0.65753,0.406 -4.773939,-3.805 -4.240549,-4.339 0.2197,-0.22 -0.2136,-0.782 -0.96289,-1.25 -0.74929,-0.468 -1.36235,-1.188 -1.36235,-1.599 0,-0.412 -0.45697,-0.924 -1.01548,-1.139 -0.55852,-0.214 -0.83357,-0.684 -0.61122,-1.044 0.22236,-0.359 0.0775,-0.654 -0.32193,-0.654 -0.39942,0 -0.54557,-0.292 -0.32478,-0.649 0.2208,-0.357 0.1116,-0.65 -0.24266,-0.65 -0.64596,0 -1.75127,-2.496 -1.50989,-3.41 0.0708,-0.268 -0.18086,-0.487 -0.55919,-0.487 -0.37833,0 -0.51971,-0.272 -0.31418,-0.605 0.20554,-0.332 0.0719,-0.791 -0.29703,-1.019 -0.36891,-0.228 -0.50257,-0.687 -0.29703,-1.019 0.20553,-0.333 0.0329,-0.605 -0.38368,-0.605 -0.41655,0 -0.60009,-0.41 -0.40786,-0.911 0.19223,-0.501 0.15043,-1.109 -0.0929,-1.353 -0.61308,-0.612 -0.79365,-2.905 -0.79365,-10.077 0,-7.172 0.18057,-9.465 0.79365,-10.078 0.24332,-0.243 0.28512,-0.852 0.0929,-1.353 -0.19223,-0.501 -0.009,-0.911 0.40786,-0.911 0.41656,0 0.58921,-0.272 0.38368,-0.604 -0.20554,-0.333 -0.0719,-0.791 0.29703,-1.019 0.3689,-0.228 0.50257,-0.687 0.29703,-1.02 -0.20553,-0.332 -0.0642,-0.604 0.31418,-0.604 0.37833,0 0.62997,-0.219 0.55919,-0.487 -0.24138,-0.914 0.86393,-3.411 1.50989,-3.411 0.35426,0 0.46346,-0.292 0.24266,-0.649 -0.22079,-0.357 -0.0746,-0.65 0.32478,-0.65 0.39941,0 0.54429,-0.294 0.32193,-0.654 -0.22235,-0.36 0.051,-0.829 0.60748,-1.042 0.55647,-0.214 0.85911,-0.635 0.67253,-0.937 -0.18658,-0.302 0.25354,-0.866 0.97805,-1.254 0.7245,-0.388 1.31728,-1.076 1.31728,-1.529 0,-0.997 3.995109,-4.976 4.995409,-4.976 0.39133,0 0.87976,-0.439 1.08539,-0.975 0.20564,-0.536 0.8215,-0.974 1.36859,-0.974 0.54709,0 0.9947,-0.292 0.9947,-0.65 0,-0.357 0.43845,-0.649 0.97432,-0.649 0.53588,0 0.97432,-0.31 0.97432,-0.688 0,-0.378 0.29229,-0.507 0.64955,-0.286 0.35725,0.22 0.64954,0.07 0.64954,-0.325 0,-0.4 0.2923,-0.546 0.64955,-0.325 0.35725,0.221 0.64954,0.08 0.64954,-0.325 0,-0.399 0.2923,-0.545 0.64955,-0.324 0.35725,0.22 0.64954,0.07 0.64954,-0.325 0,-0.4 0.26733,-0.561 0.59407,-0.359 0.32674,0.202 0.69211,0.08 0.81193,-0.268 0.11983,-0.349 0.80246,-0.725 1.51696,-0.835 0.7145,-0.11 1.66446,-0.428 2.11102,-0.706 0.44656,-0.279 1.08403,-0.339 1.4166,-0.133 0.33256,0.205 0.80057,0.06 1.04002,-0.331 0.23944,-0.388 0.88128,-0.533 1.4263,-0.324 0.54502,0.209 1.346,0.09 1.77995,-0.275 0.46049,-0.382 3.19835,-0.537 6.57552,-0.371 7.19255,0.352 7.51328,0.382 8.70946,0.819 0.53587,0.196 1.67855,0.449 2.53928,0.562 0.86073,0.113 1.80621,0.586 2.10107,1.051 0.29487,0.465 0.54059,0.59 0.54606,0.278 0.005,-0.311 0.40221,-0.241 0.88165,0.157 0.47943,0.398 1.06402,0.531 1.29909,0.296 0.23506,-0.235 0.42739,-0.07 0.42739,0.369 0,0.438 0.2923,0.615 0.64955,0.395 0.35725,-0.221 0.64954,-0.08 0.64954,0.324 0,0.4 0.2923,0.546 0.64955,0.325 0.35725,-0.221 0.64955,-0.09 0.64955,0.287 0,0.378 0.43844,0.687 0.97431,0.687 0.53588,0 0.97432,0.31 0.97432,0.688 0,0.379 0.29436,0.506 0.65414,0.284 0.35977,-0.222 0.82948,0.05 1.04381,0.611 0.21432,0.559 0.62731,1.016 0.91777,1.016 0.68896,0 8.42656,7.737 8.42656,8.426 0,0.291 0.48028,0.713 1.06728,0.938 0.58701,0.225 0.89691,0.58 0.68867,0.788 -0.20826,0.208 0.17825,0.976 0.85888,1.707 0.68064,0.73 1.08422,1.576 0.89687,1.879 -0.18736,0.304 -0.0311,0.552 0.34723,0.552 0.37834,0 0.62579,0.219 0.54989,0.487 -0.0759,0.268 0.22668,1.145 0.6724,1.948 0.44571,0.804 0.61817,1.462 0.38323,1.462 -0.23494,0 -0.0633,0.438 0.38146,0.974 0.44473,0.536 0.59088,0.974 0.32477,0.974 -0.26611,0 -0.13059,0.426 0.30116,0.946 0.43175,0.521 0.60892,1.231 0.39371,1.579 -0.21521,0.349 -0.0987,0.814 0.25891,1.035 0.73844,0.457 0.79956,1.128 0.79956,8.782 0,7.654 -0.0611,8.325 -0.79956,8.781 -0.35761,0.221 -0.48204,0.674 -0.27649,1.007 0.20553,0.332 0.1417,0.97 -0.14185,1.417 -0.28355,0.446 -0.55656,1.031 -0.60669,1.299 -0.0501,0.268 -0.16421,0.633 -0.25352,0.812 -0.0893,0.178 -0.22276,0.544 -0.29654,0.811 -0.91646,3.328 -1.23381,4.06 -1.76085,4.06 -0.33961,0 -0.46418,0.248 -0.27682,0.551 0.18735,0.303 -0.21623,1.149 -0.89687,1.88 -0.68063,0.73 -1.06714,1.498 -0.85888,1.707 0.20824,0.208 -0.10166,0.563 -0.68867,0.788 -0.587,0.225 -1.06728,0.647 -1.06728,0.938 0,0.689 -7.7376,8.426 -8.42656,8.426 -0.29046,0 -0.70345,0.457 -0.91777,1.016 -0.21433,0.558 -0.68404,0.833 -1.04381,0.611 -0.35978,-0.223 -0.65414,-0.1 -0.65414,0.283 0,0.379 -0.43844,0.688 -0.97432,0.688 -0.53587,0 -0.97431,0.31 -0.97431,0.688 0,0.379 -0.2923,0.507 -0.64955,0.287 -0.35725,-0.221 -0.64955,-0.08 -0.64955,0.324 0,0.4 -0.29229,0.546 -0.64954,0.325 -0.35725,-0.221 -0.64955,-0.04 -0.64955,0.395 0,0.438 -0.19233,0.604 -0.42739,0.369 -0.23507,-0.235 -0.81966,-0.102 -1.29909,0.296 -0.47944,0.398 -0.87618,0.468 -0.88165,0.156 -0.005,-0.311 -0.25119,-0.186 -0.54606,0.279 -0.29486,0.465 -1.24034,0.938 -2.10107,1.051 -0.86073,0.113 -2.00341,0.366 -2.53928,0.562 -1.20213,0.439 -1.51314,0.468 -8.89378,0.824 -3.42507,0.165 -6.13414,0.02 -6.35387,-0.332 l 0,0 z"
     style="fill:#808080" />
  <path
     style="fill:#808080"
     d="m 120.43899,116.18527 c -4.41572,-0.97 -12.31823,-4.768 -14.90053,-7.162 -0.94454,-0.875 -1.90551,-1.591 -2.1355,-1.591 -0.7002,0 -4.060509,-3.444 -4.079779,-4.181 -0.01,-0.38 -0.84061,-1.497 -1.84598,-2.483 -1.98524,-1.946 -4.49853,-6.715 -6.24358,-11.848 -1.35674,-3.991 -1.58307,-18.593 -0.3574,-23.059 2.05739,-7.497 7.99465,-16.464 13.623389,-20.576 9.29478,-6.791 16.93649,-9.055 28.78621,-8.528 6.57641,0.293 7.07334,0.422 13.23791,3.439 5.43219,2.658 7.24468,3.982 11.9334,8.717 8.39412,8.477 11.68456,16.446 11.68456,28.297 0,3.771 -0.26052,7.363 -0.57894,7.984 -0.31842,0.62 -1.08704,2.881 -1.70804,5.025 -1.53905,5.312 -4.67733,9.989 -10.49208,15.637 -9.94222,9.656 -23.16106,13.354 -36.92364,10.329 l 0,0 z"
     id="path2999"
     inkscape:connector-curvature="0" />
  <g
     id="g3813"
     transform="translate(453.38281,-200.70958)">
    <rect
       transform="matrix(0,-1,1,0,0,0)"
       ry="0"
       y="-289.9386"
       x="-521.73212"
       height="34.258881"
       width="92.235451"
       id="rect3001-8"
       style="fill:#ff0000" />
    <rect
       transform="scale(-1,-1)"
       ry="0"
       y="-492.74387"
       x="226.69142"
       height="34.258881"
       width="92.235451"
       id="rect3001-8-2"
       style="fill:#ff0000" />
  </g>
</svg>
