<?xml version="1.0" encoding="UTF-8" standalone="no"?>
<svg
   xmlns:dc="http://purl.org/dc/elements/1.1/"
   xmlns:cc="http://creativecommons.org/ns#"
   xmlns:rdf="http://www.w3.org/1999/02/22-rdf-syntax-ns#"
   xmlns:svg="http://www.w3.org/2000/svg"
   xmlns="http://www.w3.org/2000/svg"
   xmlns:sodipodi="http://sodipodi.sourceforge.net/DTD/sodipodi-0.dtd"
   xmlns:inkscape="http://www.inkscape.org/namespaces/inkscape"
   width="120pt"
   height="120pt"
   viewBox="0 0 120 120"
   version="1.1"
   id="svg2"
   inkscape:version="0.48.4 r9939"
   sodipodi:docname="Station.svg"
   inkscape:export-filename="/home/balaji/Desktop/Station.png"
   inkscape:export-xdpi="300"
   inkscape:export-ydpi="300">
  <metadata
     id="metadata11">
    <rdf:RDF>
      <cc:Work
         rdf:about="">
        <dc:format>image/svg+xml</dc:format>
        <dc:type
           rdf:resource="http://purl.org/dc/dcmitype/StillImage" />
        <dc:title></dc:title>
      </cc:Work>
    </rdf:RDF>
  </metadata>
  <defs
     id="defs9" />
  <sodipodi:namedview
     pagecolor="#ffffff"
     bordercolor="#666666"
     borderopacity="1"
     objecttolerance="10"
     gridtolerance="10"
     guidetolerance="10"
     inkscape:pageopacity="0"
     inkscape:pageshadow="2"
     inkscape:window-width="1151"
     inkscape:window-height="801"
     id="namedview7"
     showgrid="false"
     inkscape:zoom="0.78666667"
     inkscape:cx="420.82329"
     inkscape:cy="-46.653977"
     inkscape:window-x="210"
     inkscape:window-y="24"
     inkscape:window-maximized="0"
     inkscape:current-layer="svg2" />
  <path
     style="fill:#ff0000"
     d="m 26.816141,134.63564 c -3.864462,-1.41591 -6.484742,-3.77174 -8.282832,-7.44691 l -1.650097,-3.37268 0.170682,-48.324752 0.170682,-48.324754 1.923582,-3.110961 c 1.191817,-1.927497 3.107009,-3.842726 5.034443,-5.034543 l 3.110862,-1.923582 47.719794,-0.179289 c 43.139173,-0.162079 47.985503,-0.07832 50.487883,0.872579 3.52867,1.340885 6.77667,4.193141 8.55113,7.509244 l 1.39265,2.60255 0,48.305085 0,48.305083 -1.40817,2.63298 c -1.88876,3.53161 -5.98949,6.93 -9.39777,7.78822 -1.53265,0.38593 -6.53039,0.70168 -11.1061,0.70168 -11.79174,0 -13.560219,-0.9131 -14.414736,-7.44259 -0.493303,-3.76939 -1.59928,-6.03339 -3.788619,-7.75552 -1.61625,-1.27135 -2.408707,-1.32731 -18.794262,-1.32731 -18.424162,0 -19.580264,0.18091 -21.685133,3.39334 -0.559134,0.85335 -1.20651,3.0846 -1.438614,4.95834 -0.880303,7.10656 -2.930929,8.19246 -15.350847,8.12896 -5.921163,-0.0302 -9.565002,-0.3398 -11.244528,-0.95517 l 0,0 z m 88.816579,-20.84159 c 2.6252,-1.09688 5.27728,-4.22324 6.16329,-7.26549 0.466,-1.60008 0.62421,-14.185312 0.49363,-39.266306 l -0.19218,-36.911475 -1.53167,-2.234823 c -0.84242,-1.229154 -2.53734,-2.924075 -3.76649,-3.766492 L 114.56448,22.817797 77.653,22.625614 c -25.080995,-0.130586 -37.666221,0.02762 -39.266306,0.493627 -3.042243,0.886008 -6.168615,3.538099 -7.265491,6.163295 -0.699273,1.673595 -0.866336,9.363067 -0.86371,39.754253 l 0.0032,37.679311 1.496674,2.47253 c 0.823171,1.35989 2.609312,3.14603 3.969201,3.9692 l 2.472527,1.49667 37.679313,0.003 c 30.39119,0.003 38.08066,-0.16444 39.75426,-0.86371 l 1e-5,8e-5 z"
     id="path2989"
     inkscape:connector-curvature="0"
     transform="scale(0.8,0.8)" />
  <path
     style="fill:#666666;stroke:#808080"
     d="m 27.003223,134.12312 c -3.682112,-1.31584 -5.902835,-3.24519 -7.847166,-6.81757 l -1.817228,-3.33884 0.133302,-48.349882 0.133301,-48.349879 1.971765,-2.922553 c 1.08447,-1.607404 3.300543,-3.829306 4.924606,-4.937559 l 2.952842,-2.015006 48.642791,0.17061 48.642794,0.17061 3.12777,1.925301 c 1.77244,1.09103 4.02286,3.256623 5.19344,4.997679 l 2.06568,3.072377 0,48.426614 0,48.426618 -1.82047,2.87058 c -2.04239,3.22051 -4.45747,5.32548 -7.63215,6.65213 -2.76583,1.1558 -20.19499,1.26063 -22.6626,0.13631 -1.75313,-0.79877 -3.475555,-3.47335 -3.481548,-5.40613 -0.0077,-2.47728 -1.387945,-5.90516 -3.127691,-7.76756 l -1.827928,-1.9568 -17.446759,0 c -10.856238,0 -18.190785,0.25937 -19.416384,0.68661 -2.094374,0.73011 -4.575997,4.78627 -4.575997,7.47939 0,2.86065 -1.788353,5.83243 -4.088067,6.79332 -2.903472,1.21315 -18.692153,1.25156 -22.044303,0.0536 l 0,-1e-5 z M 117.75265,112.9087 c 1.10612,-0.78899 2.60771,-2.66689 3.33686,-4.17313 1.29895,-2.68327 1.32574,-3.5124 1.32574,-41.032779 l 0,-38.294169 -3.45431,-3.454311 -3.45431,-3.454311 -38.294167,0 c -37.520376,0 -38.349507,0.02679 -41.032778,1.325738 -1.506235,0.729156 -3.384144,2.230745 -4.17313,3.336865 l -1.434521,2.011126 -0.177708,38.983528 c -0.177007,38.830083 -0.172374,38.992153 1.177246,41.175883 0.745223,1.2058 2.398285,2.90417 3.67347,3.77416 l 2.318517,1.5818 39.088983,-0.17294 39.088988,-0.17294 2.01112,-1.43452 z"
     id="path2991"
     inkscape:connector-curvature="0"
     transform="scale(0.8,0.8)" />
  <path
     style="fill:#000000;stroke:#808080;stroke-width:0.63559324"
     d="m 35.283206,111.96149 c -4.25449,-3.872 -4.041014,-1.44966 -3.879562,-44.021892 l 0.146857,-38.72384 1.759922,-1.851971 c 3.634549,-3.824647 1.990304,-3.669372 43.355263,-4.094274 l 38.050244,-0.390853 3.65624,3.656235 3.65623,3.656235 -0.37006,38.016918 c -0.4026,41.358612 -0.2489,39.724012 -4.07704,43.361342 l -1.81864,1.72799 -39.074971,0.39209 -39.07497,0.3921 -2.329513,-2.12008 z"
     id="path2993"
     inkscape:connector-curvature="0"
     transform="scale(0.8,0.8)" />
</svg>
