<?xml version="1.0" encoding="UTF-8" standalone="no"?>
<svg
   xmlns:dc="http://purl.org/dc/elements/1.1/"
   xmlns:cc="http://creativecommons.org/ns#"
   xmlns:rdf="http://www.w3.org/1999/02/22-rdf-syntax-ns#"
   xmlns:svg="http://www.w3.org/2000/svg"
   xmlns="http://www.w3.org/2000/svg"
   xmlns:sodipodi="http://sodipodi.sourceforge.net/DTD/sodipodi-0.dtd"
   xmlns:inkscape="http://www.inkscape.org/namespaces/inkscape"
   width="192.21884"
   height="288.46875"
   id="svg2"
   version="1.1"
   inkscape:version="0.48.4 r9939"
   sodipodi:docname="black-person-symbol.svg">
  <metadata
     id="metadata18">
    <rdf:RDF>
      <cc:Work
         rdf:about="">
        <dc:format>image/svg+xml</dc:format>
        <dc:type
           rdf:resource="http://purl.org/dc/dcmitype/StillImage" />
      </cc:Work>
    </rdf:RDF>
  </metadata>
  <defs
     id="defs16" />
  <sodipodi:namedview
     pagecolor="#ffffff"
     bordercolor="#666666"
     borderopacity="1"
     objecttolerance="10"
     gridtolerance="10"
     guidetolerance="10"
     inkscape:pageopacity="0"
     inkscape:pageshadow="2"
     inkscape:window-width="1871"
     inkscape:window-height="1056"
     id="namedview14"
     showgrid="false"
     fit-margin-top="0"
     fit-margin-left="0"
     fit-margin-right="0"
     fit-margin-bottom="0"
     inkscape:zoom="1.5395379"
     inkscape:cx="-163.17847"
     inkscape:cy="79.029807"
     inkscape:window-x="49"
     inkscape:window-y="24"
     inkscape:window-maximized="1"
     inkscape:current-layer="svg2" />
  <title
     id="title4">red person symbol</title>
  <g
     id="g6"
     transform="translate(-202.4375,-47.09375)">
    <title
       id="title8">Layer 1</title>
    <path
       d="M 302.80301,90.423897"
       id="path2457"
       inkscape:connector-curvature="0"
       style="fill:#56aaff;stroke:#ffffff" />
    <g
       id="svg_1">
      <path
         d="m 296.80301,129.26001 c 22.55099,0 40.83499,-18.28401 40.83499,-40.836113 0,-22.551003 -18.284,-40.833996 -40.83499,-40.833996 -22.552,0 -40.83402,18.282993 -40.83402,40.833996 0,22.552103 18.28202,40.836113 40.83402,40.836113 z"
         id="path2455"
         inkscape:connector-curvature="0"
         style="fill:#000000;stroke:#000000" />
      <path
         d="m 255.105,138.273 c -28.918,0 -52.17299,23.58399 -52.17299,53 l 0,125.37501 c 0,24.375 35.67299,24.375 35.67299,0 l 0,-114.64201 8.444,0 0,131.90702 103.44999,0 0,-131.90702 8.24701,0 0,114.64201 c 0,24.56198 35.487,24.56198 35.422,0 l 0,-124.62502 c 0,-27.125 -21.064,-53.694 -52.814,-53.694 z"
         id="path2459"
         inkscape:connector-curvature="0"
         style="fill:#808080;stroke:#000000"
         sodipodi:nodetypes="csssccccccscscc" />
    </g>
  </g>
  <path
     style="fill:#808080"
     d="m 88.32387,81.63296 c -0.21068,-0.34088 -0.81586,-0.4537 -1.34484,-0.25071 -0.52898,0.20299 -1.35033,0.0466 -1.82521,-0.34751 -0.47489,-0.39412 -1.03631,-0.5437 -1.24761,-0.3324 -0.2113,0.2113 -0.76899,0.14415 -1.23932,-0.14923 -0.47033,-0.29338 -1.43974,-0.62339 -2.15424,-0.73337 -0.7145,-0.10998 -1.39713,-0.48563 -1.51696,-0.83477 -0.11982,-0.34915 -0.48519,-0.46959 -0.81193,-0.26765 -0.32674,0.20193 -0.59407,0.0404 -0.59407,-0.35907 0,-0.39941 -0.29229,-0.54556 -0.64954,-0.32477 -0.35725,0.2208 -0.64955,0.0747 -0.64955,-0.32477 0,-0.39942 -0.29229,-0.54557 -0.64954,-0.32477 -0.35725,0.22079 -0.64955,0.0746 -0.64955,-0.32478 0,-0.39942 -0.29229,-0.54556 -0.64954,-0.32477 -0.35726,0.22079 -0.64955,0.0919 -0.64955,-0.28644 0,-0.37833 -0.43844,-0.68788 -0.97432,-0.68788 -0.53587,0 -0.97432,-0.29229 -0.97432,-0.64954 0,-0.35725 -0.42816,-0.64955 -0.95146,-0.64955 -0.52331,0 -1.26871,-0.59277 -1.65646,-1.31728 -0.38774,-0.72451 -0.9363,-1.17432 -1.21902,-0.9996 -0.65753,0.40639 -4.77394,-3.80527 -4.24055,-4.33866 0.2197,-0.2197 -0.2136,-0.78231 -0.96289,-1.25025 -0.74929,-0.46794 -1.36235,-1.18765 -1.36235,-1.59937 0,-0.41172 -0.45697,-0.92394 -1.01548,-1.13826 -0.55852,-0.21432 -0.83357,-0.68404 -0.61122,-1.04381 0.22236,-0.35977 0.0775,-0.65413 -0.32193,-0.65413 -0.39942,0 -0.54557,-0.2923 -0.32478,-0.64955 0.2208,-0.35725 0.1116,-0.64955 -0.24266,-0.64955 -0.64596,0 -1.75127,-2.49637 -1.50989,-3.41011 0.0708,-0.26794 -0.18086,-0.48716 -0.55919,-0.48716 -0.37833,0 -0.51971,-0.2721 -0.31418,-0.60466 0.20554,-0.33257 0.0719,-0.79121 -0.29703,-1.0192 -0.36891,-0.228 -0.50257,-0.68664 -0.29703,-1.0192 0.20553,-0.33257 0.0329,-0.60467 -0.38368,-0.60467 -0.41655,0 -0.60009,-0.40986 -0.40786,-0.910812 0.19223,-0.500948 0.15043,-1.109794 -0.0929,-1.352991 -0.61308,-0.612766 -0.79365,-2.905547 -0.79365,-10.07756 0,-7.172013 0.18057,-9.464794 0.79365,-10.07756 0.24332,-0.243197 0.28512,-0.852043 0.0929,-1.352991 -0.19223,-0.500948 -0.009,-0.910815 0.40786,-0.910815 0.41656,0 0.58921,-0.272099 0.38368,-0.604663 -0.20554,-0.332565 -0.0719,-0.791205 0.29703,-1.019201 0.3689,-0.227996 0.50257,-0.686636 0.29703,-1.019201 -0.20553,-0.332564 -0.0642,-0.604663 0.31418,-0.604663 0.37833,0 0.62997,-0.219221 0.55919,-0.487159 -0.24138,-0.91374 0.86393,-3.410114 1.50989,-3.410114 0.35426,0 0.46346,-0.292296 0.24266,-0.649546 -0.22079,-0.35725 -0.0746,-0.649545 0.32478,-0.649545 0.39941,0 0.54429,-0.29436 0.32193,-0.654134 -0.22235,-0.359773 0.051,-0.828845 0.60748,-1.042381 0.55647,-0.213536 0.85911,-0.635249 0.67253,-0.937141 -0.18658,-0.301891 0.25354,-0.866138 0.97805,-1.253881 0.7245,-0.387744 1.31728,-1.07581 1.31728,-1.529035 0,-0.996445 3.99511,-4.976158 4.99541,-4.976158 0.39133,0 0.87976,-0.438443 1.08539,-0.974318 0.20564,-0.535875 0.8215,-0.974318 1.36859,-0.974318 0.54709,0 0.9947,-0.292296 0.9947,-0.649546 0,-0.35725 0.43845,-0.649545 0.97432,-0.649545 0.53588,0 0.97432,-0.309547 0.97432,-0.68788 0,-0.378334 0.29229,-0.507232 0.64955,-0.286439 0.35725,0.220793 0.64954,0.07464 0.64954,-0.324773 0,-0.399417 0.2923,-0.545565 0.64955,-0.324772 0.35725,0.220792 0.64954,0.07465 0.64954,-0.324773 0,-0.399418 0.2923,-0.545566 0.64955,-0.324773 0.35725,0.220793 0.64954,0.07464 0.64954,-0.324773 0,-0.399418 0.26733,-0.560994 0.59407,-0.35906 0.32674,0.201935 0.69211,0.08149 0.81193,-0.267654 0.11983,-0.349145 0.80246,-0.724791 1.51696,-0.834771 0.7145,-0.109979 1.66446,-0.427977 2.11102,-0.706663 0.44656,-0.278687 1.08403,-0.338536 1.4166,-0.133 0.33256,0.205536 0.80057,0.05671 1.04002,-0.330721 0.23944,-0.387432 0.88128,-0.533305 1.4263,-0.324161 0.54502,0.209144 1.346,0.08559 1.77995,-0.274559 0.46049,-0.382172 3.19835,-0.53687 6.57552,-0.37154 7.19255,0.352113 7.51328,0.382293 8.70946,0.819559 0.53587,0.195891 1.67855,0.448688 2.53928,0.561771 0.86073,0.113083 1.80621,0.58595 2.10107,1.050816 0.29487,0.464866 0.54059,0.590199 0.54606,0.278518 0.005,-0.311681 0.40221,-0.241143 0.88165,0.156751 0.47943,0.397894 1.06402,0.531116 1.29909,0.296048 0.23506,-0.235067 0.42739,-0.06913 0.42739,0.368743 0,0.437875 0.2923,0.615489 0.64955,0.394696 0.35725,-0.220793 0.64954,-0.07465 0.64954,0.324773 0,0.399418 0.2923,0.545565 0.64955,0.324773 0.35725,-0.220793 0.64955,-0.0919 0.64955,0.286438 0,0.378334 0.43844,0.68788 0.97431,0.68788 0.53588,0 0.97432,0.309546 0.97432,0.68788 0,0.378333 0.29436,0.505955 0.65414,0.283603 0.35977,-0.222352 0.82948,0.05269 1.04381,0.611211 0.21432,0.558519 0.62731,1.015488 0.91777,1.015488 0.68896,0 8.42656,7.737594 8.42656,8.426562 0,0.290448 0.48028,0.712389 1.06728,0.937644 0.58701,0.225256 0.89691,0.579939 0.68867,0.788184 -0.20826,0.208245 0.17825,0.976369 0.85888,1.706944 0.68064,0.730574 1.08422,1.576346 0.89687,1.879493 -0.18736,0.303147 -0.0311,0.551176 0.34723,0.551176 0.37834,0 0.62579,0.219221 0.54989,0.487159 -0.0759,0.267938 0.22668,1.144824 0.6724,1.948637 0.44571,0.803812 0.61817,1.461477 0.38323,1.461477 -0.23494,0 -0.0633,0.438444 0.38146,0.974319 0.44473,0.535875 0.59088,0.974318 0.32477,0.974318 -0.26611,0 -0.13059,0.425639 0.30116,0.945865 0.43175,0.520226 0.60892,1.230767 0.39371,1.578982 -0.21521,0.348213 -0.0987,0.813947 0.25891,1.034962 0.73844,0.456383 0.79956,1.127657 0.79956,8.781557 0,7.653899 -0.0611,8.325174 -0.79956,8.781557 -0.35761,0.221015 -0.48204,0.673944 -0.27649,1.006509 0.20553,0.332565 0.1417,0.970032 -0.14185,1.416595 -0.28355,0.446562 -0.55656,1.031152 -0.60669,1.299092 -0.0501,0.26794 -0.16421,0.63331 -0.25352,0.81193 -0.0893,0.17863 -0.22276,0.544 -0.29654,0.81193 -0.91646,3.328 -1.23381,4.05966 -1.76085,4.05966 -0.33961,0 -0.46418,0.24803 -0.27682,0.55118 0.18735,0.30315 -0.21623,1.14892 -0.89687,1.87949 -0.68063,0.73058 -1.06714,1.4987 -0.85888,1.70695 0.20824,0.20824 -0.10166,0.56292 -0.68867,0.78818 -0.587,0.22526 -1.06728,0.64719 -1.06728,0.93764 0,0.68897 -7.7376,8.42657 -8.42656,8.42657 -0.29046,0 -0.70345,0.45696 -0.91777,1.01548 -0.21433,0.55852 -0.68404,0.83356 -1.04381,0.61122 -0.35978,-0.22235 -0.65414,-0.0947 -0.65414,0.2836 0,0.37833 -0.43844,0.68788 -0.97432,0.68788 -0.53587,0 -0.97431,0.30955 -0.97431,0.68788 0,0.37833 -0.2923,0.50723 -0.64955,0.28644 -0.35725,-0.2208 -0.64955,-0.0746 -0.64955,0.32477 0,0.39942 -0.29229,0.54557 -0.64954,0.32477 -0.35725,-0.22079 -0.64955,-0.0432 -0.64955,0.3947 0,0.43788 -0.19233,0.60381 -0.42739,0.36874 -0.23507,-0.23507 -0.81966,-0.10184 -1.29909,0.29605 -0.47944,0.39789 -0.87618,0.46843 -0.88165,0.15675 -0.005,-0.31168 -0.25119,-0.18634 -0.54606,0.27852 -0.29486,0.46486 -1.24034,0.93773 -2.10107,1.05081 -0.86073,0.11309 -2.00341,0.36588 -2.53928,0.56177 -1.20213,0.43945 -1.51314,0.46826 -8.89378,0.82408 -3.42507,0.16513 -6.13414,0.0236 -6.35387,-0.33194 l 0,0 z"
     id="path2995"
     inkscape:connector-curvature="0" />
  <path
     inkscape:connector-curvature="0"
     id="path2997"
     d="m 88.32387,81.63296 c -0.21068,-0.34088 -0.81586,-0.4537 -1.34484,-0.25071 -0.52898,0.20299 -1.35033,0.0466 -1.82521,-0.34751 -0.47489,-0.39412 -1.03631,-0.5437 -1.24761,-0.3324 -0.2113,0.2113 -0.76899,0.14415 -1.23932,-0.14923 -0.47033,-0.29338 -1.43974,-0.62339 -2.15424,-0.73337 -0.7145,-0.10998 -1.39713,-0.48563 -1.51696,-0.83477 -0.11982,-0.34915 -0.48519,-0.46959 -0.81193,-0.26765 -0.32674,0.20193 -0.59407,0.0404 -0.59407,-0.35907 0,-0.39941 -0.29229,-0.54556 -0.64954,-0.32477 -0.35725,0.2208 -0.64955,0.0747 -0.64955,-0.32477 0,-0.39942 -0.29229,-0.54557 -0.64954,-0.32477 -0.35725,0.22079 -0.64955,0.0746 -0.64955,-0.32478 0,-0.39942 -0.29229,-0.54556 -0.64954,-0.32477 -0.35726,0.22079 -0.64955,0.0919 -0.64955,-0.28644 0,-0.37833 -0.43844,-0.68788 -0.97432,-0.68788 -0.53587,0 -0.97432,-0.29229 -0.97432,-0.64954 0,-0.35725 -0.42816,-0.64955 -0.95146,-0.64955 -0.52331,0 -1.26871,-0.59277 -1.65646,-1.31728 -0.38774,-0.72451 -0.9363,-1.17432 -1.21902,-0.9996 -0.65753,0.40639 -4.77394,-3.80527 -4.24055,-4.33866 0.2197,-0.2197 -0.2136,-0.78231 -0.96289,-1.25025 -0.74929,-0.46794 -1.36235,-1.18765 -1.36235,-1.59937 0,-0.41172 -0.45697,-0.92394 -1.01548,-1.13826 -0.55852,-0.21432 -0.83357,-0.68404 -0.61122,-1.04381 0.22236,-0.35977 0.0775,-0.65413 -0.32193,-0.65413 -0.39942,0 -0.54557,-0.2923 -0.32478,-0.64955 0.2208,-0.35725 0.1116,-0.64955 -0.24266,-0.64955 -0.64596,0 -1.75127,-2.49637 -1.50989,-3.41011 0.0708,-0.26794 -0.18086,-0.48716 -0.55919,-0.48716 -0.37833,0 -0.51971,-0.2721 -0.31418,-0.60466 0.20554,-0.33257 0.0719,-0.79121 -0.29703,-1.0192 -0.36891,-0.228 -0.50257,-0.68664 -0.29703,-1.0192 0.20553,-0.33257 0.0329,-0.60467 -0.38368,-0.60467 -0.41655,0 -0.60009,-0.40986 -0.40786,-0.910812 0.19223,-0.500948 0.15043,-1.109794 -0.0929,-1.352991 -0.61308,-0.612766 -0.79365,-2.905547 -0.79365,-10.07756 0,-7.172013 0.18057,-9.464794 0.79365,-10.07756 0.24332,-0.243197 0.28512,-0.852043 0.0929,-1.352991 -0.19223,-0.500948 -0.009,-0.910815 0.40786,-0.910815 0.41656,0 0.58921,-0.272099 0.38368,-0.604663 -0.20554,-0.332565 -0.0719,-0.791205 0.29703,-1.019201 0.3689,-0.227996 0.50257,-0.686636 0.29703,-1.019201 -0.20553,-0.332564 -0.0642,-0.604663 0.31418,-0.604663 0.37833,0 0.62997,-0.219221 0.55919,-0.487159 -0.24138,-0.91374 0.86393,-3.410114 1.50989,-3.410114 0.35426,0 0.46346,-0.292296 0.24266,-0.649546 -0.22079,-0.35725 -0.0746,-0.649545 0.32478,-0.649545 0.39941,0 0.54429,-0.29436 0.32193,-0.654134 -0.22235,-0.359773 0.051,-0.828845 0.60748,-1.042381 0.55647,-0.213536 0.85911,-0.635249 0.67253,-0.937141 -0.18658,-0.301891 0.25354,-0.866138 0.97805,-1.253881 0.7245,-0.387744 1.31728,-1.07581 1.31728,-1.529035 0,-0.996445 3.99511,-4.976158 4.99541,-4.976158 0.39133,0 0.87976,-0.438443 1.08539,-0.974318 0.20564,-0.535875 0.8215,-0.974318 1.36859,-0.974318 0.54709,0 0.9947,-0.292296 0.9947,-0.649546 0,-0.35725 0.43845,-0.649545 0.97432,-0.649545 0.53588,0 0.97432,-0.309547 0.97432,-0.68788 0,-0.378334 0.29229,-0.507232 0.64955,-0.286439 0.35725,0.220793 0.64954,0.07464 0.64954,-0.324773 0,-0.399417 0.2923,-0.545565 0.64955,-0.324772 0.35725,0.220792 0.64954,0.07465 0.64954,-0.324773 0,-0.399418 0.2923,-0.545566 0.64955,-0.324773 0.35725,0.220793 0.64954,0.07464 0.64954,-0.324773 0,-0.399418 0.26733,-0.560994 0.59407,-0.35906 0.32674,0.201935 0.69211,0.08149 0.81193,-0.267654 0.11983,-0.349145 0.80246,-0.724791 1.51696,-0.834771 0.7145,-0.109979 1.66446,-0.427977 2.11102,-0.706663 0.44656,-0.278687 1.08403,-0.338536 1.4166,-0.133 0.33256,0.205536 0.80057,0.05671 1.04002,-0.330721 0.23944,-0.387432 0.88128,-0.533305 1.4263,-0.324161 0.54502,0.209144 1.346,0.08559 1.77995,-0.274559 0.46049,-0.382172 3.19835,-0.53687 6.57552,-0.37154 7.19255,0.352113 7.51328,0.382293 8.70946,0.819559 0.53587,0.195891 1.67855,0.448688 2.53928,0.561771 0.86073,0.113083 1.80621,0.58595 2.10107,1.050816 0.29487,0.464866 0.54059,0.590199 0.54606,0.278518 0.005,-0.311681 0.40221,-0.241143 0.88165,0.156751 0.47943,0.397894 1.06402,0.531116 1.29909,0.296048 0.23506,-0.235067 0.42739,-0.06913 0.42739,0.368743 0,0.437875 0.2923,0.615489 0.64955,0.394696 0.35725,-0.220793 0.64954,-0.07465 0.64954,0.324773 0,0.399418 0.2923,0.545565 0.64955,0.324773 0.35725,-0.220793 0.64955,-0.0919 0.64955,0.286438 0,0.378334 0.43844,0.68788 0.97431,0.68788 0.53588,0 0.97432,0.309546 0.97432,0.68788 0,0.378333 0.29436,0.505955 0.65414,0.283603 0.35977,-0.222352 0.82948,0.05269 1.04381,0.611211 0.21432,0.558519 0.62731,1.015488 0.91777,1.015488 0.68896,0 8.42656,7.737594 8.42656,8.426562 0,0.290448 0.48028,0.712389 1.06728,0.937644 0.58701,0.225256 0.89691,0.579939 0.68867,0.788184 -0.20826,0.208245 0.17825,0.976369 0.85888,1.706944 0.68064,0.730574 1.08422,1.576346 0.89687,1.879493 -0.18736,0.303147 -0.0311,0.551176 0.34723,0.551176 0.37834,0 0.62579,0.219221 0.54989,0.487159 -0.0759,0.267938 0.22668,1.144824 0.6724,1.948637 0.44571,0.803812 0.61817,1.461477 0.38323,1.461477 -0.23494,0 -0.0633,0.438444 0.38146,0.974319 0.44473,0.535875 0.59088,0.974318 0.32477,0.974318 -0.26611,0 -0.13059,0.425639 0.30116,0.945865 0.43175,0.520226 0.60892,1.230767 0.39371,1.578982 -0.21521,0.348213 -0.0987,0.813947 0.25891,1.034962 0.73844,0.456383 0.79956,1.127657 0.79956,8.781557 0,7.653899 -0.0611,8.325174 -0.79956,8.781557 -0.35761,0.221015 -0.48204,0.673944 -0.27649,1.006509 0.20553,0.332565 0.1417,0.970032 -0.14185,1.416595 -0.28355,0.446562 -0.55656,1.031152 -0.60669,1.299092 -0.0501,0.26794 -0.16421,0.63331 -0.25352,0.81193 -0.0893,0.17863 -0.22276,0.544 -0.29654,0.81193 -0.91646,3.328 -1.23381,4.05966 -1.76085,4.05966 -0.33961,0 -0.46418,0.24803 -0.27682,0.55118 0.18735,0.30315 -0.21623,1.14892 -0.89687,1.87949 -0.68063,0.73058 -1.06714,1.4987 -0.85888,1.70695 0.20824,0.20824 -0.10166,0.56292 -0.68867,0.78818 -0.587,0.22526 -1.06728,0.64719 -1.06728,0.93764 0,0.68897 -7.7376,8.42657 -8.42656,8.42657 -0.29046,0 -0.70345,0.45696 -0.91777,1.01548 -0.21433,0.55852 -0.68404,0.83356 -1.04381,0.61122 -0.35978,-0.22235 -0.65414,-0.0947 -0.65414,0.2836 0,0.37833 -0.43844,0.68788 -0.97432,0.68788 -0.53587,0 -0.97431,0.30955 -0.97431,0.68788 0,0.37833 -0.2923,0.50723 -0.64955,0.28644 -0.35725,-0.2208 -0.64955,-0.0746 -0.64955,0.32477 0,0.39942 -0.29229,0.54557 -0.64954,0.32477 -0.35725,-0.22079 -0.64955,-0.0432 -0.64955,0.3947 0,0.43788 -0.19233,0.60381 -0.42739,0.36874 -0.23507,-0.23507 -0.81966,-0.10184 -1.29909,0.29605 -0.47944,0.39789 -0.87618,0.46843 -0.88165,0.15675 -0.005,-0.31168 -0.25119,-0.18634 -0.54606,0.27852 -0.29486,0.46486 -1.24034,0.93773 -2.10107,1.05081 -0.86073,0.11309 -2.00341,0.36588 -2.53928,0.56177 -1.20213,0.43945 -1.51314,0.46826 -8.89378,0.82408 -3.42507,0.16513 -6.13414,0.0236 -6.35387,-0.33194 l 0,0 z"
     style="fill:#808080" />
  <path
     style="fill:#808080"
     d="M 85.00043,80.74863 C 80.58471,79.77822 72.6822,75.97987 70.0999,73.58669 69.15536,72.71131 68.19439,71.9951 67.9644,71.9951 c -0.7002,0 -4.06051,-3.44383 -4.07978,-4.18118 -0.01,-0.37973 -0.84061,-1.49675 -1.84598,-2.48227 -1.98524,-1.94604 -4.49853,-6.71559 -6.24358,-11.8486 -1.35674,-3.990824 -1.58307,-18.592887 -0.3574,-23.058867 2.05739,-7.496586 7.99465,-16.463981 13.62339,-20.576222 9.29478,-6.790583 16.93649,-9.054263 28.78621,-8.52725 6.57641,0.292484 7.07334,0.421557 13.23791,3.438382 5.43219,2.65841 7.24468,3.982442 11.9334,8.717369 8.39412,8.476855 11.68456,16.445467 11.68456,28.297014 0,3.770585 -0.26052,7.363161 -0.57894,7.983501 -0.31842,0.62034 -1.08704,2.881664 -1.70804,5.025163 -1.53905,5.31229 -4.67733,9.98941 -10.49208,15.63682 -9.94222,9.65609 -23.16106,13.35416 -36.92364,10.32967 l 0,0 z"
     id="path2999"
     inkscape:connector-curvature="0" />
</svg>
